<svg width="180" height="65" viewBox="0 0 180 65" fill="none" xmlns="http://www.w3.org/2000/svg">
<g clip-path="url(#clip0_5_208)">
<path d="M20.597 65C30.1713 65 37.9329 64.2327 37.9329 63.2863C37.9329 62.3398 30.1713 61.5725 20.597 61.5725C11.0226 61.5725 3.26111 62.3398 3.26111 63.2863C3.26111 64.2327 11.0226 65 20.597 65Z" fill="#CACFD6"/>
<path d="M52.0535 61.3923C56.2793 61.3923 59.7049 60.625 59.7049 59.6786C59.7049 58.7321 56.2793 57.9648 52.0535 57.9648C47.8277 57.9648 44.4021 58.7321 44.4021 59.6786C44.4021 60.625 47.8277 61.3923 52.0535 61.3923Z" fill="#CACFD6"/>
<path d="M180 52.9471L140.65 52.0932L136.558 39.8631C137.77 39.4115 138.95 38.877 140.09 38.2634C142.327 37.0096 142.59 33.7261 141.644 31.6024C140.962 31.3404 139.197 31.2605 139.197 31.2605C139.4 32.2269 139.455 33.2187 139.362 34.202C139.233 35.2018 136.912 36.4017 135.598 37.0016L130.828 22.7358C131.55 22.3218 138.746 14.0091 138.746 14.0091H141.968L155.772 29.6807L160.323 27.3211L180 52.9471Z" fill="#E3E9EC"/>
<path d="M141.64 31.6024C141.64 31.6024 143.77 37.2015 139.271 38.8613C134.771 40.521 120.516 45.3403 122.857 47.506C128.161 52.4112 148.154 52.9491 148.154 52.9491C148.154 52.9491 146.785 44.4644 145.714 40.737L141.64 31.6024Z" fill="#CACFD3"/>
<path d="M15.0236 45.9418L18.5042 38.8954L18.8177 42.3888L21.3691 36.4893L21.9648 38.7455L23.16 34.7869L24.5038 40.2843L26.6019 31.9786L28.1842 38.8528L30.3885 34.7818C30.3885 34.7818 28.0156 35.9014 28.0156 35.6049C28.0156 35.3084 31.2178 29.8434 31.2178 29.8434C31.2178 29.8434 28.2692 31.2663 28.2679 30.9715C28.2667 30.6767 30.7657 27.6826 31.6187 25.7996C32.4716 23.9166 33.9965 17.3815 33.9965 17.3815C33.9965 17.3815 36.4443 25.423 37.7507 26.2904C38.1728 25.0021 39.5153 21.3384 39.5153 21.3384L36.8565 22.855C36.8565 22.855 40.8629 11.9404 41.3524 9.47123C41.842 7.00203 41.7271 7.85066 42.6013 10.0046C43.2108 11.8331 43.9351 17.8144 46.1556 21.214C48.2562 23.7701 44.647 21.9501 44.647 21.9501L47.9165 30.0445L50.7889 22.8499L52.4937 28.4376L55.0351 21.2089L52.1627 23.8127C52.1627 23.8127 54.7229 18.9476 55.2687 15.0981C55.8144 11.2486 56.4888 5.13096 56.4888 5.13096L60.0981 14.0416C60.0981 14.0416 63.5425 1.67681 63.6724 0C64.0808 5.90461 69.5421 20.0075 69.5421 20.0075C69.5421 20.0075 71.6652 14.1642 71.86 11.9984C72.5194 14.1438 81.1155 49.8782 81.1155 49.8782C81.1155 49.8782 56.871 51.9163 47.417 51.9589C37.963 52.0015 19.8405 52.1736 18.1695 50.9194C16.4985 49.6652 15.0236 45.9418 15.0236 45.9418Z" fill="#E3E9EC"/>
<path d="M56.6622 53.8854C56.6622 53.8854 58.1448 53.4615 58.3753 54.2074C58.6059 54.9533 56.6622 57.9348 56.6622 57.9348C56.6622 57.9348 58.8861 57.7468 58.9795 58.2128C57.3558 58.4467 55.44 58.4387 55.3207 58.5287C55.2015 58.6187 56.6622 53.8854 56.6622 53.8854Z" fill="#F66A0A"/>
<path d="M61.3246 51.1459C61.1596 50.8359 58.741 51.1459 58.741 51.1459V49.6621C58.741 49.6621 60.5833 49.1222 60.6986 48.6943C60.9887 47.6284 58.7947 48.4243 58.433 48.4943C56.5442 48.8992 54.8388 49.9141 53.5763 51.3844C52.3138 52.8548 51.5634 54.6999 51.4394 56.639C51.3955 57.109 51.4359 57.5832 51.5586 58.0388C51.0777 58.4268 50.2966 58.9087 49.7362 58.5207C48.8697 57.9208 51.5249 53.4295 51.4096 51.3218C51.3142 49.5381 49.8654 45.4088 46.1887 45.3808C43.2395 45.3608 41.5621 46.5806 40.4254 49.1802C39.2886 51.7798 38.5711 53.1176 37.3668 52.9996C36.1624 52.8816 35.6239 53.0996 34.658 51.2239C34.7514 52.4917 35.7192 55.0913 38.3048 55.0233C40.8904 54.9553 42.0292 53.6835 43.1699 52.5916C44.3107 51.4998 46.2921 51.0719 46.3855 52.5237C46.4789 53.9754 45.2547 57.5229 45.4395 58.6847C45.6243 59.8465 46.1351 60.5104 48.2397 60.4464C50.0284 60.3904 51.2705 59.1426 51.7892 58.5787C51.9974 58.9331 52.3333 59.1931 52.7272 59.3046C52.7907 59.3155 52.8524 59.3357 52.91 59.3646C53.0492 59.4486 52.6159 60.0765 52.5563 60.2285C52.4967 60.3804 55.3684 60.4964 56.698 60.3844C56.8372 60.3869 56.9729 60.3402 57.0815 60.2525C57.1145 60.2083 57.1379 60.1578 57.1505 60.1041C57.1631 60.0504 57.1644 59.9946 57.1545 59.9403C57.1447 59.886 57.1237 59.8344 57.093 59.7887C57.0623 59.7429 57.0226 59.7041 56.9762 59.6746C56.7875 59.5581 56.5696 59.4985 56.3482 59.5026L54.1144 59.3346C55.1836 58.7007 56.1624 57.9238 57.0239 57.025C57.4492 56.583 57.8725 56.0011 57.7175 55.4032C57.5903 54.9233 57.1213 54.6193 56.7059 54.3654C56.6 53.5769 56.5913 52.7783 56.6801 51.9877C56.7795 51.3478 56.9385 50.8899 57.326 50.474C57.326 50.488 57.5247 52.4357 58.0852 52.6836C58.6456 52.9316 60.5475 51.8838 60.5475 51.8838C60.5475 51.8838 60.8496 52.6096 60.9311 52.5897C61.0126 52.5697 61.4895 51.4578 61.3246 51.1459Z" fill="#FF9C57"/>
<path d="M60.0288 47.6444C59.7426 47.4884 59.5916 46.6666 59.8102 46.5686C60.0288 46.4706 60.5813 46.7885 60.5694 47.2525C60.7125 47.1785 61.0424 47.0945 61.1179 47.0105C61.0364 46.9673 60.9668 46.9046 60.9151 46.8278C60.8635 46.7511 60.8314 46.6627 60.8218 46.5706C60.7085 46.1066 61.0503 46.0047 61.2193 46.1426C61.3882 46.2806 61.6167 46.6846 61.5134 46.9585C62.0162 46.6946 62.6621 46.8265 63.1411 47.1325C63.6184 47.4535 63.951 47.9505 64.0672 48.5163C64.0793 48.6494 64.1352 48.7747 64.2262 48.8722C64.4428 49.0442 64.7707 48.8022 65.0211 48.8942C65.2377 48.9702 64.9575 49.8401 64.7647 49.964C64.2326 50.3046 63.6355 50.5293 63.0119 50.6239C62.4296 50.7099 61.7996 50.6719 61.3146 50.338C61.0793 50.1689 60.8771 49.9574 60.7184 49.7141C60.1262 48.8282 60.2733 48.6522 60.0288 47.6444Z" fill="#FF9C57"/>
<path d="M56.8351 51.3358C56.4297 51.887 56.0625 52.4656 55.7361 53.0676C55.2211 53.885 54.7965 54.7567 54.4702 55.6672C55.208 55.1953 55.9777 54.7756 56.7735 54.4114L56.7059 54.3694C56.6 53.5809 56.5914 52.7823 56.6801 51.9917C56.7132 51.7691 56.7651 51.5497 56.8351 51.3358Z" fill="#F66A0A"/>
<path d="M46.9241 59.4126C46.8168 58.2808 49.6468 55.7852 47.7747 55.2272C47.7467 55.2184 47.721 55.2035 47.6995 55.1835C47.6779 55.1635 47.6611 55.1389 47.65 55.1116C47.639 55.0843 47.6341 55.0548 47.6358 55.0254C47.6374 54.9959 47.6455 54.9672 47.6594 54.9413C48.198 54.1914 49.2314 53.5775 49.4938 52.6636C49.7561 51.7498 49.1261 51.0359 48.3013 50.8339C47.9893 50.7579 47.566 50.6939 47.3375 50.434C47.0692 50.136 47.097 49.6341 46.7253 49.3921C46.153 49.0262 45.2467 49.4241 44.738 49.7021C43.8993 50.15 43.2415 50.8859 42.5797 51.5558C41.4548 52.6956 40.1412 54.1454 38.442 54.2814C36.546 54.4354 35.5543 52.9076 34.6858 51.4818C34.8846 52.8116 35.8782 55.0953 38.3048 55.0313C40.8884 54.9653 42.0292 53.6915 43.1699 52.5996C44.3107 51.5078 46.2921 51.0799 46.3855 52.5317C46.4789 53.9834 45.2547 57.5309 45.4395 58.6927C45.6243 59.8545 46.1351 60.5184 48.2397 60.4544C48.3995 60.4478 48.5588 60.4317 48.7167 60.4064C47.8323 60.5204 47.0215 60.4644 46.9241 59.4126Z" fill="#FF7000"/>
<path opacity="0.8" d="M62.9741 47.8204C63.2729 48.0284 63.5209 48.3019 63.6995 48.6202C64.0652 49.2202 64.5163 49.4301 65.0907 49.3061C65.1324 49.1062 65.1324 48.9302 65.039 48.9062C64.7806 48.8142 64.4527 49.0562 64.2441 48.8842C64.1531 48.7867 64.0972 48.6614 64.0851 48.5283C63.9689 47.9625 63.6363 47.4655 63.159 47.1445C62.8362 46.9344 62.4582 46.8264 62.0738 46.8345C61.897 46.8805 61.7201 46.9265 61.5432 46.9665H61.5313C61.4081 46.9945 61.2849 47.0145 61.1597 47.0305C61.0305 47.0805 60.9053 47.1365 60.782 47.1965C60.8059 47.2325 60.8317 47.2665 60.8576 47.2985C61.6004 47.2401 62.3423 47.423 62.9741 47.8204Z" fill="#FFD1AC"/>
<path opacity="0.8" d="M49.2513 48.0004C50.7219 49.8941 50.877 52.4337 50.5451 54.7993C51.0101 53.5335 51.4553 52.2197 51.4056 51.3298C51.3102 49.5461 49.8614 45.4168 46.1848 45.3888H45.986C47.2937 45.9527 48.514 47.0525 49.2513 48.0004Z" fill="#FFD1AC"/>
<path d="M56.3442 59.5066L55.2373 59.4206C55.4718 59.5388 55.6646 59.7265 55.7898 59.9585C55.8686 60.1008 55.8946 60.2666 55.8633 60.4264C56.1713 60.4264 56.4595 60.4084 56.694 60.3884C56.8333 60.3909 56.969 60.3442 57.0776 60.2565C57.1105 60.2123 57.134 60.1618 57.1465 60.1081C57.1591 60.0544 57.1605 59.9986 57.1506 59.9443C57.1407 59.89 57.1197 59.8384 57.0891 59.7927C57.0584 59.7469 57.0186 59.7081 56.9723 59.6785C56.7835 59.5621 56.5656 59.5025 56.3442 59.5066Z" fill="#F66A0A"/>
<path d="M65.0152 49.2302C65.1622 49.2302 65.2815 49.1102 65.2815 48.9622C65.2815 48.8142 65.1622 48.6942 65.0152 48.6942C64.8681 48.6942 64.7488 48.8142 64.7488 48.9622C64.7488 49.1102 64.8681 49.2302 65.0152 49.2302Z" fill="#2F363D"/>
<path opacity="0.8" d="M56.7059 54.3634C55.758 54.3634 54.7523 55.4632 54.3628 55.7952C56.5072 54.3774 57.2823 55.0313 57.4015 56.0951C57.4193 56.2681 57.4099 56.4429 57.3737 56.613C57.644 56.2451 57.8288 55.8271 57.7175 55.4012C57.5903 54.9213 57.2008 54.3634 56.7059 54.3634Z" fill="#FFD1AC"/>
<path opacity="0.8" d="M58.7371 51.1459V49.7961C58.6226 49.8196 58.5166 49.8736 58.4299 49.9524C58.3432 50.0312 58.2791 50.1319 58.2442 50.244C58.1607 50.444 58.119 51.2259 58.2442 51.4018C58.4747 51.7098 59.6234 51.3358 59.9931 51.2898C60.4422 51.2263 60.8974 51.2182 61.3485 51.2659C61.3459 51.2244 61.3358 51.1837 61.3187 51.1459C61.1597 50.8359 58.7371 51.1459 58.7371 51.1459Z" fill="#FFD1AC"/>
<path d="M30.0172 57.8031C30.0172 57.8031 30.361 60.3927 31.0267 61.1126C31.6925 61.8325 34.4629 63.7622 34.604 63.3923C33.2586 61.7025 31.8217 57.4952 31.8217 57.4952L30.0172 57.8031Z" fill="#FF7000"/>
<path d="M21.1674 57.9731C21.1369 57.9841 21.1105 58.0044 21.0919 58.0311C21.0601 58.0811 21.0919 58.1451 21.1197 58.1951C21.432 58.7433 21.6757 59.3283 21.8451 59.9368C21.9683 60.3747 22.1929 60.9806 22.5943 60.7687C23.2919 60.3987 22.7215 59.4769 22.5943 58.693C22.6738 59.1769 24.216 58.617 24.7188 57.8931C25.3627 56.9712 23.8324 56.8353 23.276 56.9752C22.5585 57.1592 21.8331 57.6571 21.1674 57.9731Z" fill="#FF7000"/>
<path d="M27.0599 52.356C26.1338 52.248 25.168 52.282 24.3154 52.6599C23.4966 53.0219 22.8427 53.6718 22.2485 54.3437C22.078 54.5612 21.8724 54.7484 21.6404 54.8976C21.4037 55.0178 21.1423 55.0801 20.8772 55.0795C19.6331 55.1235 18.4626 54.4236 17.6139 53.5098C16.7653 52.5959 16.1751 51.4741 15.5411 50.3983C14.5236 48.6705 13.3013 46.9668 11.5445 46.0129C9.10996 44.6892 5.93811 45.1031 3.71623 46.7648C1.49434 48.4266 0.206521 51.1761 0.00778304 53.9537C-0.0359392 54.5676 0.0932409 55.3535 0.685479 55.4995L1.60961 53.7158C2.06273 52.8379 2.5397 51.934 3.31279 51.3161C4.08588 50.6982 5.24849 50.4743 6.05139 51.0442C6.68139 51.4921 6.94372 52.308 7.02521 53.0799C7.10669 53.8517 7.05104 54.6416 7.22394 55.3975C7.65918 57.2352 9.44185 58.509 11.2841 58.873C12.6232 59.1354 14.0088 59.0085 15.2788 58.507C17.3794 57.6751 19.2118 55.8214 21.4635 55.9694C21.7576 56.7693 22.5387 57.3132 23.3575 57.5392C24.1763 57.7651 25.0408 57.7271 25.8894 57.6851L24.7824 59.0189C25.366 60.1931 26.1473 61.2567 27.0917 62.1625C27.5449 61.0026 27.1732 59.8208 26.4538 58.803C26.6362 58.4415 26.9325 58.1511 27.2964 57.9771C28.1232 58.425 30.3192 58.303 31.2473 58.1771C31.2076 58.853 31.3487 60.4187 31.778 61.0866C32.2072 61.7545 33.6004 63.1563 34.3934 63.5882C34.8942 63.8602 36.4304 64.2201 36.659 63.7622C34.7789 62.9623 32.9068 61.0166 32.9147 58.9629C32.9147 57.9631 33.7793 57.3012 33.7335 56.4533C33.6958 55.7194 32.5093 54.8536 31.9906 54.4416C30.5716 53.2989 28.8642 52.5767 27.0599 52.356Z" fill="#FF9C57"/>
<path d="M16.6183 55.7634C15.879 55.7634 15.1158 55.9174 14.5653 55.3215C14.3873 55.0824 14.2303 54.8282 14.0963 54.5616C13.6571 53.8877 13.1205 53.8057 12.3494 53.8517C11.4074 53.9077 11.0814 53.5478 10.7058 52.6979C9.63661 50.2983 6.9298 48.4286 4.33429 49.8264C2.34692 50.9022 1.12468 53.2618 0.588087 55.3915C0.582219 55.4107 0.573514 55.4289 0.562256 55.4455C0.604043 55.4679 0.647987 55.486 0.693417 55.4995L1.61755 53.7157C2.07067 52.8379 2.54764 51.934 3.32073 51.3161C4.09382 50.6982 5.25643 50.4743 6.05933 51.0442C6.68933 51.4921 6.95167 52.308 7.03315 53.0798C7.11463 53.8517 7.05899 54.6416 7.23189 55.3975C7.66712 57.2352 9.4498 58.509 11.2921 58.8729C12.6311 59.1354 14.0168 59.0084 15.2867 58.507C16.7812 57.9071 18.1406 56.8093 19.6112 56.2714C18.6891 55.8754 17.6954 55.7594 16.6183 55.7634Z" fill="#FF7000"/>
<path opacity="0.6" d="M26.6386 54.9636C26.6823 54.9636 28.4272 56.1454 28.4054 56.6973C28.3835 57.2492 26.8155 58.1071 26.8155 58.1071C26.8155 58.1071 27.5806 57.1212 27.4117 56.5353C27.2428 55.9494 26.6386 54.9636 26.6386 54.9636Z" fill="#FFD1AC"/>
<path d="M33.1969 55.4675C33.022 56.0674 32.6882 56.6273 32.5391 57.2572C32.4407 57.644 32.4291 58.048 32.5051 58.4398C32.581 58.8317 32.7427 59.2016 32.9783 59.5229C32.9466 59.3373 32.9306 59.1493 32.9306 58.961C32.9306 57.9611 33.7951 57.2992 33.7494 56.4513C33.7296 56.1314 33.495 55.7894 33.1969 55.4675Z" fill="#FB8532"/>
<path d="M34.3894 54.2597C34.8445 54.0777 35.2241 54.5496 34.9021 55.6695L35.4824 55.6835C35.3751 55.3799 35.3384 55.0557 35.3751 54.7356C35.381 54.6692 35.4002 54.6046 35.4313 54.5457C35.4625 54.4869 35.5052 54.4349 35.5567 54.3929C35.6082 54.351 35.6676 54.3198 35.7313 54.3014C35.7951 54.283 35.8618 54.2776 35.9276 54.2857C36.2396 54.3017 36.3489 54.5716 36.3609 54.8856C36.3696 55.1904 36.3012 55.4925 36.1621 55.7634C36.5073 56.012 36.7802 56.3488 36.9528 56.739C37.1254 57.1292 37.1914 57.5587 37.1439 57.9831C37.079 58.2812 37.0325 58.5831 37.0048 58.887C36.9933 59.039 37.0244 59.1912 37.0947 59.3262C37.165 59.4613 37.2716 59.5738 37.4023 59.6508C37.5653 59.7016 37.7321 59.739 37.9011 59.7628C38.064 59.8088 38.231 59.9468 38.2091 60.1168C38.1893 60.2568 38.0541 60.3467 37.9269 60.4107C37.4488 60.6447 36.9244 60.7671 36.3928 60.7688C35.8612 60.7706 35.336 60.6516 34.8564 60.4207C34.0158 60.0088 33.3381 59.2049 33.2188 58.2731C33.1829 57.97 33.2088 57.6628 33.2949 57.3702C33.381 57.0776 33.5255 56.8058 33.7196 56.5713C33.8588 56.4033 34.3059 56.1934 34.3556 55.9954C34.131 55.6775 33.7753 54.4996 34.3894 54.2597Z" fill="#FF9C57"/>
<path d="M37.9329 60.2627C38.0789 60.2627 38.1972 60.1437 38.1972 59.9968C38.1972 59.8499 38.0789 59.7308 37.9329 59.7308C37.7869 59.7308 37.6685 59.8499 37.6685 59.9968C37.6685 60.1437 37.7869 60.2627 37.9329 60.2627Z" fill="#2F363D"/>
<path opacity="0.6" d="M12.9933 49.2304C14.0446 50.4302 14.8535 51.814 15.8651 53.0418C16.8618 54.2897 18.2378 55.1742 19.7822 55.5594C19.8955 55.5434 20.0067 55.5235 20.12 55.4975C19.029 55.3975 18.0154 54.7556 17.2582 53.9417C16.4096 53.0258 15.8213 51.906 15.1874 50.8282C14.1698 49.1004 12.9456 47.3967 11.1888 46.4429C9.97472 45.8027 8.59779 45.5436 7.23587 45.699C9.45577 46.1329 11.5505 47.5807 12.9933 49.2304Z" fill="#FFD1AC"/>
<path opacity="0.6" d="M30.2755 54.2077C31.2434 54.7636 31.9966 55.5735 32.6842 56.4413C32.7317 56.203 32.7981 55.969 32.8829 55.7414C32.3769 55.157 31.7962 54.6426 31.1559 54.2117C29.6952 53.2438 28.0039 52.9639 26.3147 52.6759L26.899 52.9479C28.0159 53.4018 29.2222 53.6058 30.2755 54.2077Z" fill="#FFD1AC"/>
<path d="M126.838 20.8901C123.797 22.6758 120.488 23.6516 116.664 24.5675C112.951 25.4217 109.194 26.0732 105.41 26.5192L113.489 15.2469L124.503 10.4657L129.232 17.6906C129.232 17.6906 128.608 18.5504 126.838 20.8901Z" fill="#CACFD3"/>
<path d="M136.975 36.5536C132.863 38.4074 95.0417 48.9517 84.8802 49.5116L102.469 27.745H105.76C109.049 27.745 112.453 26.8811 115.39 26.5092C118.328 26.1373 125.453 24.3095 128.754 21.496C129.715 20.6661 130.82 18.5504 130.82 18.5504L139.032 30.9025C139.032 30.9025 141.087 34.7019 136.975 36.5536Z" fill="#CACFD3"/>
<path d="M117.445 19.5303L117.592 16.0968L114.667 18.7564V16.0968L110.545 21.14L113.483 15.247L121.162 3.09483L126.838 14.4331L123.906 13.3572L122.293 18.7564L120.16 14.4331L117.445 19.5303Z" fill="white"/>
<path d="M86.6212 62.7216C97.5939 62.7216 106.489 61.2802 106.489 59.5021C106.489 57.724 97.5939 56.2826 86.6212 56.2826C75.6485 56.2826 66.7534 57.724 66.7534 59.5021C66.7534 61.2802 75.6485 62.7216 86.6212 62.7216Z" fill="#CACFD6"/>
<path d="M93.4702 48.2473C93.4702 48.2473 115.383 46.2676 118.114 44.3439" stroke="#E1E4E8" stroke-miterlimit="10"/>
<path d="M102.502 44.2845C102.429 43.9485 118.185 25.7093 119.538 24.4575C120.891 23.2057 132.999 8.85993 133.875 8.37001C134.408 7.1702 132.643 6.15835 131.846 6.70427C131.105 8.16404 118.36 23.3257 117.207 24.5615C116.054 25.7973 106.815 35.8518 102.771 39.0713C101.896 41.5169 101.087 41.9288 100.463 42.6387C100.356 43.0167 100.491 43.5286 101.22 44.0165C101.95 44.5044 102.502 44.2845 102.502 44.2845Z" fill="#F9C513"/>
<path d="M129.654 11.8115C128.503 12.9453 124.163 18.0905 123.038 19.4323C120.611 22.3259 110.577 33.7621 108.015 36.6436C106.823 37.9954 102.274 42.6907 101.071 43.9125C101.119 43.9485 101.165 43.9865 101.22 44.0225C101.948 44.5124 102.502 44.2845 102.502 44.2845C102.429 43.9485 118.185 25.7093 119.538 24.4575C120.891 23.2057 132.999 8.85994 133.875 8.37002C133.947 8.21463 133.98 8.04382 133.971 7.8726C133.962 7.70139 133.911 7.53503 133.823 7.38817C132.559 8.97392 131.081 10.4037 129.654 11.8115Z" fill="#FFDF5D"/>
<path d="M100.783 42.3108C100.672 42.4207 100.565 42.5287 100.463 42.6447C100.356 43.0226 100.491 43.5346 101.22 44.0225C101.95 44.5104 102.502 44.2845 102.502 44.2845C102.551 44.1676 102.618 44.0596 102.701 43.9645C102.271 43.2066 101.593 42.6222 100.783 42.3108Z" fill="#DBAB09"/>
<path d="M86.3449 9.24987C85.6136 6.68027 83.499 5.68242 82.7399 5.52844C82.705 5.52172 82.6691 5.52405 82.6354 5.5352C82.6017 5.54636 82.5713 5.56597 82.5473 5.59219C82.5232 5.61841 82.5062 5.65037 82.4978 5.68505C82.4894 5.71973 82.49 5.75599 82.4994 5.7904L83.4295 9.24987C83.4295 9.24987 81.4838 11.9634 81.4838 14.827C81.4838 17.6906 81.776 18.7864 81.4838 19.6663C81.2167 20.4942 81.1369 21.3717 81.2504 22.2346C81.3639 23.0975 81.6677 23.924 82.1397 24.6535C83.6042 27.0303 85.8492 28.8166 88.4854 29.7027" stroke="#0366D6" stroke-miterlimit="10"/>
<path d="M82.6107 5.52445C82.6107 5.52445 84.3596 3.55475 88.6245 5.08652C90.1019 4.40636 91.6986 4.02769 93.3224 3.97243C94.9461 3.91717 96.5647 4.18641 98.0844 4.76457C103.252 6.72826 104.665 9.91777 104.665 9.91777" stroke="#0366D6" stroke-miterlimit="10"/>
<path d="M99.8571 12.0994C99.8571 12.0994 103.081 9.31986 105.845 9.91377C108.454 11.9455 106.765 17.1966 106.151 17.9685" stroke="#0366D6" stroke-miterlimit="10"/>
<path d="M102.083 11.8675C102.083 11.8675 104.355 10.5037 104.847 11.0236C105.428 11.6375 105.197 15.009 105 16.2708" stroke="#0366D6" stroke-miterlimit="10"/>
<path d="M81.4838 14.827C81.4838 14.827 81.7422 11.1636 83.6699 11.7895C85.5977 12.4154 86.651 16.5008 88.7278 17.0427C90.8046 17.5846 98.3984 15.195 101.085 17.5086C103.772 19.8222 102.544 22.5258 102.079 23.4517C101.614 24.3775 100.165 26.7212 100.165 26.7212C100.165 26.7212 102.077 28.5209 98.0864 29.8327" stroke="#0366D6" stroke-miterlimit="10"/>
<path d="M106.849 16.2708C106.849 16.2708 107.767 21.7099 105.37 24.9974C102.787 28.5369 97.194 31.0165 91.9831 30.4606" stroke="#0366D6" stroke-miterlimit="10"/>
<path d="M92.1282 31.0225C92.1282 31.0225 91.7725 29.3688 90.2859 29.2608C88.7993 29.1528 85.1923 31.6104 83.3301 34.492C81.4679 37.3735 81.7919 38.7093 83.8806 40.2651C85.4705 41.4429 89.4333 42.3068 93.0404 41.9348L97.3928 41.5009C97.5072 41.5452 97.6086 41.618 97.6874 41.7124C97.7663 41.8068 97.8202 41.9198 97.8439 42.0408C97.8439 42.3268 97.1682 44.3645 98.2851 44.5324C99.402 44.7004 99.5689 43.8705 99.5689 43.0407C100.517 42.4807 102.663 41.2409 102.763 37.7135C102.862 34.186 100.239 32.0144 97.2815 32.4623C94.3243 32.9102 89.5307 34.7639 86.8477 34.148" stroke="#0366D6" stroke-miterlimit="10"/>
<path d="M90.8245 31.1165C90.8245 31.1165 89.3141 32.9022 89.2882 34.198" stroke="#0366D6" stroke-miterlimit="10"/>
<path d="M94.6859 33.0282L93.0464 30.5426" stroke="#0366D6" stroke-miterlimit="10"/>
<path d="M92.4422 31.6204L92.8158 33.5001" stroke="#0366D6" stroke-miterlimit="10"/>
<path d="M88.6006 26.3771C88.751 26.1151 88.3658 25.6081 87.7404 25.2447C87.1149 24.8814 86.486 24.7993 86.3356 25.0613C86.1852 25.3234 86.5704 25.8304 87.1958 26.1938C87.8213 26.5571 88.4502 26.6392 88.6006 26.3771Z" stroke="#0366D6" stroke-miterlimit="10"/>
<path d="M88.1594 29.7027C88.1594 29.7027 77.3858 32.7602 72.4929 35.2059C67.6 37.6515 56.7807 43.7885 57.2299 45.5043C57.679 47.22 66.7494 43.8865 69.6689 42.5847C72.948 41.1209 82.4735 36.0717 82.4735 36.0717" stroke="#0366D6" stroke-miterlimit="10"/>
<path d="M86.4145 41.3749C86.4145 41.3749 82.7001 45.9862 80.5299 47.314C78.4272 48.6018 72.6082 51.6953 72.161 52.5272C71.4953 53.763 70.7083 58.0823 74.9831 60.286C76.8413 61.2438 81.1937 61.5638 83.0061 60.5139C84.8186 59.4641 84.753 59.0402 84.5483 58.8722C84.0773 58.4863 79.2679 61.2538 77.1533 60.9479" stroke="#0366D6" stroke-miterlimit="10"/>
<path d="M75.8576 54.2089C76.0126 54.053 80.506 53.4291 82.3841 55.1288C83.9064 56.5106 83.7753 58.9782 83.5388 59.0602" stroke="#0366D6" stroke-miterlimit="10"/>
<path d="M82.3841 55.1288C82.3841 55.1288 86.0051 53.1751 88.4913 49.4257C90.0111 47.1156 91.2332 44.6207 92.1282 42.0008" stroke="#0366D6" stroke-miterlimit="10"/>
<path d="M93.0464 41.9348L97.3232 56.5146C97.3232 56.5146 98.5832 59.2181 100.66 59.0602C102.737 58.9022 106.894 57.4724 108.653 55.1288C109.526 53.967 110.571 51.9673 110.136 51.2714C109.653 50.4995 109.011 50.8714 108.639 51.0034C108.103 50.8034 104.406 50.4995 103.331 52.4032" stroke="#0366D6" stroke-miterlimit="10"/>
<path d="M99.2569 44.2845C99.2569 44.2845 102.48 51.2714 103.945 53.587" stroke="#0366D6" stroke-miterlimit="10"/>
<path d="M105.619 24.6255C105.619 24.6255 113.695 20.2782 116.64 19.3623C119.586 18.4464 122.283 17.4006 123.733 18.9864C125.184 20.5721 124.014 23.8656 123.02 25.0774C121.901 26.4552 119.993 27.999 117.455 27.999C117.455 27.999 114.301 28.2089 114.053 25.2454C113.347 25.5793 112.296 25.5294 112.934 24.4455C113.846 22.9018 115.671 20.9821 120.566 20.3981" stroke="#0366D6" stroke-miterlimit="10"/>
<path d="M93.3306 30.5366C93.3306 30.5366 96.8621 31.2665 102.075 30.2966C107.288 29.3268 114.13 25.7193 114.13 25.7193" stroke="#0366D6" stroke-miterlimit="10"/>
<path d="M77.6422 16.0028C79.8502 16.9147 81.452 19.6023 81.452 19.6023" stroke="#0366D6" stroke-miterlimit="10" stroke-linecap="round"/>
<path d="M77.6422 18.6924C78.6975 18.7684 80.5259 19.4623 81.2374 20.5741" stroke="#0366D6" stroke-miterlimit="10" stroke-linecap="round"/>
<path d="M101.896 26.8831C103.287 27.0431 107.238 28.9388 108.335 30.4286" stroke="#0366D6" stroke-miterlimit="10"/>
<path d="M107.695 29.7607C107.932 29.9601 108.147 30.1847 108.335 30.4306" stroke="#0366D6" stroke-miterlimit="10" stroke-linecap="round"/>
<path d="M102.274 27.875C103.323 28.4869 105.454 30.5426 106.014 32.0224" stroke="#0366D6" stroke-miterlimit="10" stroke-linecap="round"/>
<path d="M64.7081 41.9307C66.805 40.7125 68.3291 39.4187 68.1124 39.0409C67.8956 38.6631 66.02 39.3444 63.9231 40.5625C61.8262 41.7807 60.302 43.0745 60.5188 43.4523C60.7356 43.8301 62.6112 43.1488 64.7081 41.9307Z" stroke="#0366D6" stroke-miterlimit="10"/>
<path d="M74.6447 36.1555C76.6197 35.2326 78.1133 34.2514 77.9806 33.9639C77.8479 33.6764 76.1392 34.1915 74.1642 35.1144C72.1891 36.0373 70.6956 37.0185 70.8283 37.306C70.961 37.5935 72.6696 37.0784 74.6447 36.1555Z" stroke="#0366D6" stroke-miterlimit="10"/>
<path d="M85.7666 31.7124C85.3413 31.9324 84.3059 32.3823 83.8846 32.5363C82.0264 33.2182 80.4524 33.5781 80.3649 33.3361C80.2775 33.0942 81.7163 32.3543 83.5725 31.6724C84.6411 31.273 85.7471 30.9836 86.8736 30.8085" stroke="#0366D6" stroke-miterlimit="10"/>
<path d="M94.5349 47.006C94.5349 47.006 95.0079 47.6579 95.3477 47.556C95.6876 47.454 95.7909 45.1563 95.3477 43.7885C94.9046 42.4208 94.2567 41.8128 94.1553 41.8228" stroke="#0366D6" stroke-miterlimit="10"/>
<path d="M95.4391 50.0916C95.4769 50.2175 96.8661 50.1715 97.6809 52.9671C98.4957 55.7627 98.303 57.3564 97.6809 57.1385" stroke="#0366D6" stroke-miterlimit="10"/>
<path d="M113.095 24.2176C111 24.2176 108.127 26.5112 108.325 26.8832C108.723 27.647 112.463 26.5572 112.463 26.5572" stroke="#0366D6" stroke-miterlimit="10"/>
<path d="M100.682 30.5246C100.682 30.5246 107.012 28.3249 107.256 27.677C107.501 27.0291 102.663 27.613 102.469 27.745" stroke="#0366D6" stroke-miterlimit="10"/>
<path d="M147.473 57.4444L149.857 39.2592L150.629 17.5366C150.629 17.5366 151.648 17.1367 152.942 17.8665C154.236 18.5964 154.663 19.5983 154.663 19.5983L152.346 37.0596L152.843 57.4444L150.289 59.6841L147.473 57.4444Z" fill="#F9C513"/>
<path d="M154.669 19.5983C154.669 19.5983 154.242 18.5984 152.948 17.8665C152.838 17.8041 152.724 17.748 152.608 17.6986C152.409 19.3643 152.556 21.046 152.566 22.7258C152.557 24.6313 152.419 26.534 152.155 28.4209C151.643 32.3013 151.347 36.2075 151.269 40.1211C151.233 42.1008 151.42 44.0625 151.451 46.0402C151.474 47.8862 151.333 49.7305 151.03 51.5513C150.633 54.031 149.959 56.4486 149.229 58.8502L150.289 59.6921L152.849 57.4444L152.352 37.0596L154.669 19.5983Z" fill="#DBAB09"/>
<path d="M144.392 23.2457C144.038 23.2737 143.242 37.6335 143.242 37.6335L158.113 39.2592L159.353 21.8519L144.392 23.2457Z" fill="#FFEA7F"/>
<path d="M159.973 41.3549L162.362 25.8853L159.353 21.8519L158.113 39.2592L159.973 41.3549Z" fill="#F9C513"/>
<path d="M149.365 31.6024L149.053 33.7261L146.252 29.5967L149.971 27.0671V29.2408L155.015 28.7408L154.307 33.4161L149.365 31.6024Z" fill="#DBAB09"/>
<path d="M148.915 30.9425L148.615 32.9282L145.907 29.0688L149.502 26.7032V28.7349L154.381 28.2669L153.697 32.6383L148.915 30.9425Z" fill="#FFD33D"/>
<path d="M154.019 60.6239C154.019 60.6239 154.943 51.0254 154.587 49.6716C154.375 50.4575 150.533 56.6865 150.533 56.6865V50.6015C150.533 50.6015 149.679 53.401 149.394 54.2529C149.11 52.9631 147.119 49.0977 147.407 49.5276C147.695 49.9576 147.763 54.037 147.407 54.037C147.123 53.967 146.056 50.2375 144.988 49.0257C145.414 49.4557 145.7 52.6052 146.056 54.1809C145.913 53.609 143.029 51.6033 141.644 51.3174C141.787 52.2472 143.85 53.967 144.277 55.1828C144.704 56.3986 143.991 57.7604 143.991 57.7604L146.624 59.7421L154.019 60.6239Z" fill="#88929C"/>
<path d="M149.092 60.526C149.025 60.326 150.565 55.3368 150.565 55.3368C150.565 55.3368 155.118 52.5072 155.931 52.0353C156.744 51.5633 157.873 51.6353 157.873 51.6353L160.349 50.6935C160.349 50.6935 167.179 52.5112 167.38 52.5792C167.581 52.6472 168.785 54.8688 169.322 55.6107C169.858 56.3526 170.117 56.8225 170.192 58.0364L170.26 59.2482L166.643 63.1556H162.491C162.491 63.1556 159.546 64.3014 158.876 64.0994C158.206 63.8974 155.796 63.2995 154.925 62.5497C154.055 61.7998 149.092 60.526 149.092 60.526Z" fill="#B1B7BB"/>
<path d="M158.113 52.4732C158.113 52.4732 157.743 48.9997 160.995 45.2743" stroke="#959DA5" stroke-miterlimit="10"/>
<path d="M161.195 45.4883C161.45 45.4883 161.657 45.2806 161.657 45.0244C161.657 44.7681 161.45 44.5604 161.195 44.5604C160.941 44.5604 160.734 44.7681 160.734 45.0244C160.734 45.2806 160.941 45.4883 161.195 45.4883Z" stroke="#959DA5" stroke-miterlimit="10"/>
<path d="M163.024 46.6101C163.254 46.6101 163.441 46.4221 163.441 46.1902C163.441 45.9582 163.254 45.7702 163.024 45.7702C162.793 45.7702 162.607 45.9582 162.607 46.1902C162.607 46.4221 162.793 46.6101 163.024 46.6101Z" stroke="#959DA5" stroke-miterlimit="10"/>
<path d="M159.437 47.47C159.437 47.47 160.343 48.0039 161.164 47.47C161.703 47.1138 162.222 46.7259 162.716 46.3081" stroke="#959DA5" stroke-miterlimit="10"/>
<path opacity="0.5" d="M154.872 49.0237C154.704 48.5177 154.66 47.9787 154.742 47.452C154.794 47.206 154.953 46.924 155.206 46.934C155.321 46.9478 155.429 46.999 155.514 47.08C155.718 47.2516 155.905 47.4439 156.07 47.6539C157.355 49.1996 158.324 50.9846 158.924 52.9071C158.848 51.9533 159.351 51.0194 160.071 50.3935C160.79 49.7676 161.704 49.4137 162.626 49.1757C162.97 49.0857 163.386 49.0297 163.634 49.2837C163.713 49.3749 163.767 49.4857 163.791 49.6048C163.814 49.7239 163.805 49.847 163.765 49.9616C163.685 50.1887 163.548 50.3912 163.368 50.5495C162.945 50.9062 162.482 51.2116 161.988 51.4593C160.959 52.0477 159.982 52.7234 159.067 53.479C158.989 53.5571 158.89 53.6118 158.783 53.637C158.716 53.6425 158.648 53.6343 158.584 53.613C156.644 53.1211 155.374 50.8194 154.872 49.0237Z" fill="#959DA5"/>
<path d="M156.714 58.7802C157.754 57.7933 158.893 56.9168 160.112 56.1646C160.977 56.3406 161.76 56.1986 162.42 56.2986C163.811 55.0628 165.442 53.627 166.867 52.4312C165.236 51.9873 160.357 50.6895 160.357 50.6895L157.879 51.6313C157.879 51.6313 156.74 51.5653 155.937 52.0312C155.295 52.4092 152.266 54.2869 151.07 55.0308C151.825 56.1866 155.523 57.8843 156.714 58.7802Z" fill="#CACFD3"/>
<path d="M159.973 41.3589L158.113 39.2632L143.242 37.6375V38.8633L159.973 41.3589Z" fill="#DBAB09"/>
<path d="M135.687 17.4266C135.829 16.9967 140.469 11.6155 140.469 11.6155L145.597 18.0645H144.742L147.021 20.5001C147.021 20.5001 144.03 20.7861 143.603 19.9262C143.309 20.5461 142.472 21.62 142.113 21.5C141.753 21.38 139.803 18.8544 139.803 18.8544C139.803 18.8544 137.816 22.4538 137.532 22.3418C137.248 22.2299 136.542 17.6906 136.542 17.6906L135.383 18.7124L136.003 17.6986L135.687 17.4266Z" fill="white"/>
<path d="M166.867 52.4312C165.236 51.9873 160.357 50.6895 160.357 50.6895L157.879 51.6313C157.879 51.6313 156.74 51.5653 155.937 52.0312C155.295 52.4092 152.266 54.2869 151.07 55.0308" stroke="#E1E4E8" stroke-miterlimit="10"/>
<path opacity="0.6" d="M34.2105 55.0056C34.7829 54.9556 34.4629 55.9814 34.7948 56.1034C35.0452 56.1934 35.3652 55.9954 35.6792 56.1334C35.9892 56.2853 36.2397 56.5373 36.3907 56.8493C36.6192 57.2812 36.5993 57.6951 36.5775 58.1671C36.5497 58.795 36.6033 59.4249 37.3128 59.6068C37.2055 59.5216 37.1201 59.4118 37.0638 59.2866C37.0074 59.1613 36.9817 59.0243 36.9889 58.8869C37.0166 58.5831 37.0631 58.2812 37.128 57.9831C37.1755 57.5587 37.1095 57.1292 36.9369 56.739C36.7643 56.3488 36.4914 56.012 36.1462 55.7634C36.2853 55.4925 36.3537 55.1904 36.345 54.8856C36.333 54.5716 36.2237 54.3017 35.9117 54.2857C35.8459 54.2776 35.7791 54.283 35.7154 54.3014C35.6517 54.3198 35.5923 54.351 35.5408 54.3929C35.4892 54.4349 35.4466 54.4868 35.4154 54.5457C35.3842 54.6046 35.3651 54.6692 35.3592 54.7356C35.3225 55.0556 35.3592 55.3799 35.4665 55.6835L34.8862 55.6695C35.2082 54.5496 34.8286 54.0697 34.3735 54.2597C34.0833 54.3736 34.0138 54.7056 34.0436 55.0595C34.0942 55.0285 34.1514 55.01 34.2105 55.0056Z" fill="#FFD1AC"/>
</g>
<defs>
<clipPath id="clip0_5_208">
<rect width="180" height="65" fill="white"/>
</clipPath>
</defs>
</svg>
