<svg width="14" height="14" viewBox="0 0 14 14" fill="none" xmlns="http://www.w3.org/2000/svg">
<path d="M9.75059 3.69225L7.02918 5.81607L4.24554 3.69225V3.69282L4.24891 3.69569V6.66962L6.99779 8.83937L9.75059 6.75343V3.69225Z" fill="#EA4335"/>
<path d="M10.4652 3.17563L9.75053 3.69224V6.75342L11.9994 5.0268V3.9867C11.9994 3.9867 11.7264 2.50117 10.4652 3.17563Z" fill="#FBBC05"/>
<path d="M9.75053 6.75349V10.7239H11.4742C11.4742 10.7239 11.9647 10.6734 12 10.1143V5.02687L9.75053 6.75349Z" fill="#34A853"/>
<path d="M4.24904 10.7272V6.66959L4.24554 6.66672L4.24904 10.7272Z" fill="#C5221F"/>
<path d="M4.24552 3.69285L3.53475 3.17911C2.27354 2.50466 2 3.98961 2 3.98961V5.02971L4.24552 6.66678V3.69285Z" fill="#C5221F"/>
<path d="M4.24554 3.69281V6.66674L4.24904 6.66961V3.69568L4.24554 3.69281Z" fill="#C5221F"/>
<path d="M2 5.03026V10.1177C2.03475 10.6773 2.52578 10.7273 2.52578 10.7273H4.24944L4.24552 6.66675L2 5.03026Z" fill="#4285F4"/>
</svg>
