<svg width="16" height="17" viewBox="0 0 16 17" fill="none" xmlns="http://www.w3.org/2000/svg">
<path fill-rule="evenodd" clip-rule="evenodd" d="M12.7665 6.49218C12.7741 6.60155 12.7741 6.71094 12.7741 6.82031C12.7741 10.1562 10.2995 14 5.77666 14C4.38325 14 3.08884 13.5859 2 12.8672C2.19798 12.8906 2.38831 12.8984 2.59391 12.8984C3.74364 12.8984 4.80203 12.5 5.64722 11.8203C4.56599 11.7969 3.6599 11.0703 3.34771 10.0703C3.5 10.0937 3.65228 10.1094 3.81219 10.1094C4.033 10.1094 4.25383 10.0781 4.4594 10.0234C3.3325 9.78905 2.48729 8.77343 2.48729 7.54687V7.51563C2.81469 7.70313 3.19543 7.82032 3.59896 7.83593C2.93652 7.38279 2.50253 6.60936 2.50253 5.73436C2.50253 5.26562 2.62433 4.83593 2.83754 4.46093C4.04821 5.99217 5.86802 6.99216 7.90862 7.10155C7.87055 6.91405 7.8477 6.71876 7.8477 6.52344C7.8477 5.1328 8.94416 4 10.3071 4C11.0152 4 11.6548 4.30469 12.1041 4.79687C12.6599 4.6875 13.1929 4.47656 13.665 4.1875C13.4822 4.77345 13.0939 5.26564 12.5838 5.57812C13.0787 5.52346 13.5584 5.3828 14 5.18751C13.665 5.68749 13.2462 6.13278 12.7665 6.49218Z" fill="#1DA1F2"/>
</svg>
