<svg width="20" height="16" viewBox="0 0 20 16" fill="none" xmlns="http://www.w3.org/2000/svg">
<path d="M15.295 1.70758L10.0562 5.79595L4.69775 1.70758V1.70869L4.70423 1.71421V7.43903L9.99582 11.6158L15.295 7.60036V1.70758Z" fill="#EA4335"/>
<path d="M16.6704 0.713087L15.2947 1.70756V7.60033L19.6238 4.2766V2.2744C19.6238 2.2744 19.0983 -0.585246 16.6704 0.713087Z" fill="#FBBC05"/>
<path d="M15.2947 7.60047V15.2435H18.6127C18.6127 15.2435 19.5569 15.1463 19.6248 14.07V4.27673L15.2947 7.60047Z" fill="#34A853"/>
<path d="M4.70447 15.2499V7.43894L4.69775 7.43341L4.70447 15.2499Z" fill="#C5221F"/>
<path d="M4.69762 1.7097L3.3294 0.720755C0.901569 -0.577578 0.375 2.28096 0.375 2.28096V4.28316L4.69762 7.43452V1.7097Z" fill="#C5221F"/>
<path d="M4.69775 1.70862V7.43344L4.70447 7.43896V1.71414L4.69775 1.70862Z" fill="#C5221F"/>
<path d="M0.375 4.28326V14.0766C0.4419 15.1539 1.38714 15.25 1.38714 15.25H4.70517L4.69762 7.43352L0.375 4.28326Z" fill="#4285F4"/>
</svg>
