<svg width="16" height="17" viewBox="0 0 16 17" fill="none" xmlns="http://www.w3.org/2000/svg">
<path fill-rule="evenodd" clip-rule="evenodd" d="M4.69403 0.583332H11.329C13.7744 0.583332 15.1361 1.9925 15.1361 4.40708V12.585C15.1361 15.0392 13.7744 16.4167 11.329 16.4167H4.69403C2.28736 16.4167 0.886108 15.0392 0.886108 12.585V4.40708C0.886108 1.9925 2.28736 0.583332 4.69403 0.583332ZM4.90778 4.2725V4.26458H7.27407C7.61528 4.26458 7.89236 4.54167 7.89236 4.88129C7.89236 5.23042 7.61528 5.5075 7.27407 5.5075H4.90778C4.56657 5.5075 4.29028 5.23042 4.29028 4.89C4.29028 4.54958 4.56657 4.2725 4.90778 4.2725ZM4.90778 9.08583H11.1144C11.4549 9.08583 11.7319 8.80875 11.7319 8.46833C11.7319 8.12791 11.4549 7.85004 11.1144 7.85004H4.90778C4.56657 7.85004 4.29028 8.12791 4.29028 8.46833C4.29028 8.80875 4.56657 9.08583 4.90778 9.08583ZM4.90778 12.7037H11.1144C11.4303 12.6721 11.6686 12.4021 11.6686 12.0862C11.6686 11.7617 11.4303 11.4925 11.1144 11.4608H4.90778C4.67028 11.4371 4.44069 11.5479 4.31403 11.7537C4.18736 11.9517 4.18736 12.2129 4.31403 12.4187C4.44069 12.6167 4.67028 12.7354 4.90778 12.7037Z" fill="#7D7D7D"/>
</svg>
