<svg width="16" height="17" viewBox="0 0 16 17" fill="none" xmlns="http://www.w3.org/2000/svg">
<path d="M6.54875 3.39813C6.58907 3.4802 6.6157 3.56808 6.62762 3.65843L6.84805 6.93587L6.95747 8.58319C6.9586 8.75259 6.98518 8.9209 7.03634 9.0827C7.1685 9.39661 7.4864 9.59612 7.83227 9.58221L13.1026 9.23747C13.3308 9.23371 13.5512 9.31907 13.7153 9.47476C13.852 9.60451 13.9403 9.77424 13.9681 9.95679L13.9774 10.0676C13.7593 13.0876 11.5413 15.6065 8.5276 16.2567C5.51388 16.907 2.42346 15.5334 0.934211 12.8818C0.504873 12.1114 0.236706 11.2647 0.145451 10.3913C0.10733 10.1327 0.0905443 9.87156 0.0952576 9.61035C0.090551 6.37258 2.39623 3.57343 5.62375 2.89862C6.0122 2.83813 6.393 3.04377 6.54875 3.39813Z" fill="#7D7D7D"/>
<path opacity="0.4" d="M8.6999 0.583981C12.3098 0.67582 15.3438 3.27166 15.9278 6.76806L15.9222 6.79386L15.9063 6.83138L15.9085 6.93437C15.9002 7.07081 15.8476 7.20209 15.7568 7.30813C15.6622 7.41859 15.533 7.49381 15.3907 7.52301L15.304 7.53492L9.22335 7.9289C9.02109 7.94884 8.8197 7.88362 8.66929 7.74946C8.54394 7.63766 8.46381 7.48674 8.44117 7.32412L8.03304 1.25234C8.02593 1.23181 8.02593 1.20955 8.03304 1.18902C8.03861 1.02166 8.11229 0.863455 8.23759 0.749764C8.3629 0.636073 8.5294 0.576365 8.6999 0.583981Z" fill="#7D7D7D"/>
</svg>
