<svg width="16" height="17" viewBox="0 0 16 17" fill="none" xmlns="http://www.w3.org/2000/svg">
<path fill-rule="evenodd" clip-rule="evenodd" d="M4.31431 0.583649H11.7077C14.4001 0.583649 15.9201 2.11077 15.9281 4.80323V12.1974C15.9281 14.8891 14.4001 16.417 11.7077 16.417H4.31431C1.62185 16.417 0.0947266 14.8891 0.0947266 12.1974V4.80323C0.0947266 2.11077 1.62185 0.583649 4.31431 0.583649ZM8.05018 13.1395C8.39139 13.1395 8.6756 12.8861 8.70727 12.5457V4.47865C8.73893 4.23323 8.62098 3.98702 8.40723 3.85323C8.18477 3.71865 7.9156 3.71865 7.70264 3.85323C7.4881 3.98702 7.37014 4.23323 7.3931 4.47865V12.5457C7.43348 12.8861 7.71768 13.1395 8.05018 13.1395ZM11.6926 13.1395C12.0251 13.1395 12.3094 12.8861 12.3497 12.5457V9.94907C12.3727 9.69494 12.2547 9.45823 12.0402 9.32365C11.8272 9.18906 11.5581 9.18906 11.3364 9.32365C11.1219 9.45823 11.0039 9.69494 11.0356 9.94907V12.5457C11.0672 12.8861 11.3514 13.1395 11.6926 13.1395ZM5.0181 12.5457C4.98644 12.8862 4.70223 13.1395 4.36102 13.1395C4.0206 13.1395 3.7356 12.8862 3.70473 12.5457V7.07531C3.68098 6.82911 3.79894 6.58448 4.01348 6.4499C4.22644 6.31531 4.49639 6.31531 4.71014 6.4499C4.9231 6.58448 5.04264 6.82911 5.0181 7.07531V12.5457Z" fill="#7D7D7D"/>
</svg>
