<svg width="16" height="17" viewBox="0 0 16 17" fill="none" xmlns="http://www.w3.org/2000/svg">
<path d="M5.74277 15.4456V13.0249C5.74277 12.4069 6.24737 11.906 6.86983 11.906H9.14522C9.44413 11.906 9.73081 12.0239 9.94217 12.2337C10.1535 12.4435 10.2723 12.7281 10.2723 13.0249V15.4456C10.2704 15.7025 10.3719 15.9495 10.5542 16.1318C10.7365 16.3141 10.9846 16.4167 11.2434 16.4167H12.7958C13.5208 16.4185 14.2167 16.1339 14.7301 15.6256C15.2434 15.1174 15.5319 14.4272 15.5319 13.7074V6.81126C15.5319 6.22986 15.2723 5.67837 14.8231 5.30536L9.54217 1.1184C8.62355 0.384277 7.30736 0.40798 6.41617 1.17469L1.25579 5.30536C0.785321 5.66738 0.50413 6.2205 0.490234 6.81126V13.7004C0.490234 15.2006 1.71524 16.4167 3.22637 16.4167H4.7433C5.28079 16.4167 5.71761 15.9862 5.7215 15.4526L5.74277 15.4456Z" fill="#7D7D7D"/>
</svg>
