<svg width="8" height="11" viewBox="0 0 8 11" fill="none" xmlns="http://www.w3.org/2000/svg">
<path fill-rule="evenodd" clip-rule="evenodd" d="M8.00001 3.9058L7.99995 3.92705C7.9999 3.936 7.99982 3.94495 7.99971 3.95391C7.99991 3.96436 8.00001 3.97488 8.00001 3.98551C8.00001 5.65364 6.70037 7.13023 5.83069 8.11834C5.57834 8.40505 5.36219 8.65064 5.22449 8.84783C4.7347 9.54929 4.4762 10.3092 4.40817 10.6015C4.40817 10.8216 4.22543 11 4 11C3.77458 11 3.59184 10.8216 3.59184 10.6015C3.52381 10.3092 3.26531 9.54929 2.77551 8.84783C2.63782 8.65064 2.42167 8.40505 2.16932 8.11834C1.29964 7.13023 0 5.65364 0 3.98551C0 3.97488 9.96493e-05 3.96436 0.000298948 3.95391C9.96493e-05 3.93789 0 3.92185 0 3.9058C0 1.74868 1.79086 0 4 0C6.20915 0 8.00001 1.74868 8.00001 3.9058ZM4 5.34058C4.85661 5.34058 5.55102 4.66252 5.55102 3.82609C5.55102 2.98966 4.85661 2.3116 4 2.3116C3.1434 2.3116 2.44898 2.98966 2.44898 3.82609C2.44898 4.66252 3.1434 5.34058 4 5.34058Z" fill="#34A851"/>
<path d="M7.55261 2.10928C7.06281 1.18773 6.20797 0.480887 5.1751 0.171387L2.87782 2.78073C3.16027 2.49176 3.5586 2.31173 3.99998 2.31173C4.85659 2.31173 5.55101 2.98979 5.55101 3.82622C5.55101 4.16745 5.43544 4.48232 5.24045 4.73554L7.55261 2.10928Z" fill="#4285F5"/>
<path d="M2.2157 8.17111C2.20038 8.15369 2.18492 8.13614 2.16931 8.11841C1.59605 7.46709 0.835976 6.60353 0.384445 5.61275L2.77211 2.90076C2.56953 3.15668 2.44898 3.47766 2.44898 3.82616C2.44898 4.66259 3.1434 5.34066 4 5.34066C4.43392 5.34066 4.82622 5.16666 5.10773 4.88623L2.2157 8.17111Z" fill="#F9BB0E"/>
<path d="M0.946439 1.38284C0.356037 2.06345 0 2.94406 0 3.90588C0 3.92193 9.96493e-05 3.93797 0.000298948 3.95398C9.96493e-05 3.96443 0 3.97496 0 3.98559C0 4.55414 0.150979 5.10046 0.384447 5.61276L2.76809 2.90533L0.946439 1.38284Z" fill="#E74335"/>
<path d="M5.17512 0.171272C4.80355 0.0599383 4.40895 0 4.00001 0C2.77588 0 1.68018 0.536935 0.946457 1.38277L2.76811 2.90524L2.77207 2.90074C2.80521 2.85888 2.84053 2.81876 2.87789 2.78054L5.17512 0.171272Z" fill="#1A73E6"/>
</svg>
