<svg width="20" height="17" viewBox="0 0 20 17" fill="none" xmlns="http://www.w3.org/2000/svg">
<path d="M6.27767 17C3.96696 17 1.81298 16.3045 0 15.1046C1.53928 15.2077 4.25576 14.9608 5.94541 13.2931C3.40363 13.1724 2.25733 11.1552 2.10781 10.2931C2.32378 10.3793 3.35379 10.4828 3.93524 10.2414C1.01136 9.48276 0.562805 6.82759 0.662483 6.01724C1.21071 6.41379 2.14104 6.55172 2.50652 6.51724C-0.218005 4.5 0.762161 1.46552 1.24394 0.810345C3.19916 3.61336 6.12943 5.18764 9.75456 5.27521C9.68621 4.965 9.65011 4.64205 9.65011 4.31034C9.65011 1.92981 11.5096 0 13.8034 0C15.0018 0 16.0817 0.526818 16.8398 1.36949C17.6406 1.1753 18.8459 0.720702 19.4352 0.327586C19.1382 1.43103 18.2135 2.35154 17.6542 2.69271C17.6589 2.70432 17.6497 2.68105 17.6542 2.69271C18.1455 2.61581 19.4748 2.35145 20 1.98276C19.7403 2.60266 18.76 3.63336 17.9555 4.2104C18.1052 11.0412 13.0546 17 6.27767 17Z" fill="#47ACDF"/>
</svg>
